# xmcd
#
# Track frame offsets: 
#        183
#        16520
#        32895
#        56728
#
# Disc length: 973 seconds
#
# Revision: 2
# Processed by: cddbd v1.5.2PL0 Copyright (c) Steve Scherf et al.
# Submitted via: ExactAudioCopyFreeDBPlugin 1.0
#
DISCID=2703cb04
DTITLE=Irene Cara - Rhythm of My Life (single)
DYEAR=1995
DGENRE=Dance
TTITLE0=Rhythm of My Life (Radio Edit)
TTITLE1=Rhythm of My Life (Club Version)
TTITLE2=Rhythm of My Life (Extended Version)
TTITLE3=Rhythm of My Life (Instrumental)
EXTD=
EXTT0=
EXTT1=
EXTT2=
EXTT3=
PLAYORDER=
